<?xml version="1.0" encoding="UTF-8"?>
<svg version="1.1" xmlns="http://www.w3.org/2000/svg" width="4267" height="4267">
<path d="M0 0 C1660.92361996 0 1660.92361996 0 1700.0625 3.8125 C1701.39979156 3.93896912 1701.39979156 3.93896912 1702.76409912 4.06799316 C1797.59218481 13.04998632 1891.10148557 32.47165072 2125 121 C2125.64749207 121.31708923 2126.29498413 121.63417847 2126.96209717 121.96087646 C2144.6381829 130.61804897 2162.1451435 139.42956597 2179.15576172 149.34912109 C2182.22990169 151.13344165 2185.31862526 152.89052672 2188.41015625 154.64453125 C2233.75821599 180.44463152 2276.81837373 210.46689811 2317.1796875 243.51171875 C2318.77261865 244.81409379 2320.3702952 246.11066032 2321.96875 247.40625 C2332.62867011 256.05959691 2343.0287897 264.98497025 2353.0859375 274.33203125 C2355.32935521 276.38599143 2357.59248958 278.39863236 2359.88671875 280.39453125 C2371.76917721 290.75879995 2382.96787817 301.86761136 2394.125 313 C2394.66365692 313.53606873 2395.20231384 314.07213745 2395.7572937 314.62445068 C2401.14314054 319.98985339 2406.45530152 325.37157376 2411.39892578 331.15380859 C2414.28005273 334.47602299 2417.34407921 337.62755783 2420.375 340.8125 C2425.47768573 346.21084835 2430.33048184 351.68243976 2434.9609375 357.4921875 C2437.06181906 360.07603034 2439.25586565 362.5399352 2441.5 365 C2449.62875285 373.94444085 2457.02375233 383.50184562 2464.45507812 393.02539062 C2466.09435043 395.12059201 2467.74219937 397.2088692 2469.390625 399.296875 C2476.67210665 408.54842608 2483.64958336 417.95015973 2490.3515625 427.62890625 C2492.15986436 430.22994708 2493.98536104 432.81840976 2495.8125 435.40625 C2504.93790886 448.36630161 2513.65825378 461.52268149 2522 475 C2522.6717627 476.08442383 2523.34352539 477.16884766 2524.03564453 478.28613281 C2539.47970016 503.26970294 2553.66728883 528.82608577 2567 555 C2567.58273682 556.14057861 2567.58273682 556.14057861 2568.17724609 557.30419922 C2570.11307656 561.10094267 2572.01564623 564.9125945 2573.890625 568.73974609 C2574.7071699 570.40338445 2575.52813464 572.06485528 2576.3515625 573.72509766 C2613.63145062 649.00460995 2639.70035737 729.31877857 2659.6875 810.75 C2659.86043579 811.44881287 2660.03337158 812.14762573 2660.21154785 812.86761475 C2660.69315112 814.82159964 2661.16517379 816.77793844 2661.63671875 818.734375 C2661.90186279 819.82975586 2662.16700684 820.92513672 2662.44018555 822.05371094 C2662.96019161 824.79048948 2663.11217764 827.22416595 2663 830 C2654.99425058 826.01015454 2646.99769737 822.0030801 2639.01947021 817.95843506 C2615.24237537 805.90937434 2591.41052073 794.20538617 2566.91455078 783.68603516 C2563.24400705 782.10921183 2559.58795941 780.50071733 2555.93359375 778.88671875 C2470.28726781 741.27882179 2379.3789787 715.18614612 2148 682 C2147.16621826 681.94886047 2146.33243652 681.89772095 2145.47338867 681.84503174 C2046.6331555 675.85774668 1946.8280515 681.86531625 1698 738 C1697.23320923 738.24621094 1696.46641846 738.49242187 1695.6763916 738.74609375 C1648.33839133 753.96715471 1602.02515382 771.88426982 1557 793 C1555.91960449 793.50563477 1554.83920898 794.01126953 1553.72607422 794.53222656 C1546.44940943 797.95150765 1539.21669876 801.4561122 1532 805 C1531.32757263 805.32955688 1530.65514526 805.65911377 1529.96234131 805.99865723 C1511.61161747 814.99519599 1493.43710586 824.13806913 1475.76025391 834.41259766 C1471.76200966 836.71195942 1467.72384553 838.93749326 1463.68823242 841.17041016 C1427.78615594 861.06927145 1393.41447439 883.67202849 1360.0390625 907.54199219 C1358.63683915 908.5446356 1357.23310638 909.54517033 1355.828125 910.54394531 C1345.01751869 918.23138258 1334.47386451 926.2060925 1324.04394531 934.40136719 C1321.06817618 936.72880821 1318.06513301 939.01990937 1315.0625 941.3125 C1309.27445961 945.75701784 1303.62652681 950.35379045 1298 955 C1296.22924218 956.43759302 1294.45840774 957.87509167 1292.6875 959.3125 C1286.64027225 964.26023179 1280.72073653 969.35098209 1274.80273438 974.45166016 C1273.02514087 975.97840691 1271.24047985 977.49641708 1269.453125 979.01171875 C1262.48745811 984.92601887 1255.68883583 990.98124307 1249.00390625 997.2109375 C1246.42739187 999.61135625 1243.81613264 1001.96911131 1241.1875 1004.3125 C1227.89742473 1016.25422492 1215.13130369 1028.70701002 1202.51489258 1041.35473633 C1199.91277179 1043.96227975 1197.30526247 1046.56435064 1194.69726562 1049.16601562 C1193.01530383 1050.84863735 1191.33365179 1052.53156878 1189.65234375 1054.21484375 C1188.88558823 1054.97957504 1188.1188327 1055.74430634 1187.32884216 1056.5322113 C1183.22497954 1060.65382766 1179.29258774 1064.86488204 1175.49555969 1069.27085876 C1173.76322639 1071.2737537 1171.96673612 1073.20322186 1170.1328125 1075.11328125 C1169.47949951 1075.79817627 1168.82618652 1076.48307129 1168.15307617 1077.1887207 C1167.48381104 1077.88956787 1166.8145459 1078.59041504 1166.125 1079.3125 C1160.87826864 1084.84235211 1155.87792632 1090.42512515 1151.13671875 1096.39453125 C1148.69901253 1099.36701762 1146.11791689 1102.18753244 1143.5 1105 C1139.32358184 1109.49911531 1135.35482104 1114.11751645 1131.50390625 1118.8984375 C1129.00724505 1121.99102564 1126.47848619 1125.05465656 1123.94311523 1128.11547852 C1117.16218966 1136.30959013 1110.49588389 1144.57820078 1104 1153 C1103.39929687 1153.77859375 1102.79859375 1154.5571875 1102.1796875 1155.359375 C1093.41931819 1166.73738454 1084.81947378 1178.21438954 1076.48974609 1189.91162109 C1075.10052644 1191.85907847 1073.70188177 1193.79936379 1072.30078125 1195.73828125 C1036.76554906 1245.19809793 1005.77165383 1297.84365285 978 1352 C977.39671875 1353.17256348 976.7934375 1354.34512695 976.171875 1355.55322266 C965.31597323 1376.69370876 955.39379288 1398.17281481 946 1420 C945.67988953 1420.74205688 945.35977905 1421.48411377 945.02996826 1422.24865723 C934.85030641 1445.86650391 925.5954878 1469.7622245 917 1494 C916.70760437 1494.82262329 916.41520874 1495.64524658 916.11395264 1496.49279785 C881.98199025 1592.63976301 859.94777259 1693.5772747 848 1843 C847.94558746 1843.90516357 847.89117493 1844.81032715 847.83511353 1845.74291992 C846.72048419 1864.93757379 846.79905211 1884.15526961 846.8125 1903.375 C846.81276688 1904.22940926 846.81303375 1905.08381851 846.81330872 1905.96411896 C846.8231974 1931.19466517 846.92847207 1956.37235991 848.81640625 1981.54547119 C849.01328129 1984.17756214 849.20205105 1986.81017306 849.390625 1989.44287109 C856.39495084 2085.87882989 874.03774914 2181.9929043 904 2274 C904.31733093 2274.97565918 904.63466187 2275.95131836 904.96160889 2276.95654297 C917.81438436 2316.37015033 932.19877292 2355.09202908 949 2393 C949.51723633 2394.18110352 950.03447266 2395.36220703 950.56738281 2396.57910156 C958.72081196 2415.18968257 967.56584794 2433.43970008 976.625 2451.625 C977.14194427 2452.66674377 977.65888855 2453.70848755 978.1914978 2454.78179932 C985.24683766 2468.97592943 992.73135211 2482.85412916 1000.62597656 2496.59832764 C1002.39236415 2499.68581809 1004.12042909 2502.7923609 1005.83984375 2505.90625 C1042.32368004 2571.85211914 1086.64419084 2634.07882888 1135.60107422 2691.36279297 C1137.08145834 2693.09533326 1138.55831358 2694.83084661 1140.03515625 2696.56640625 C1145.27629734 2702.71473159 1150.56972788 2708.80216001 1156 2714.78515625 C1157.79603529 2716.77412502 1159.55953303 2718.78563194 1161.3125 2720.8125 C1165.87177392 2726.0379692 1170.59281843 2731.11347082 1175.31787109 2736.18847656 C1176.95406471 2737.95053123 1178.58082626 2739.72091736 1180.20703125 2741.4921875 C1189.71981567 2751.78499595 1199.59932656 2761.70747352 1209.5 2771.625 C1210.55592346 2772.68480576 1210.55592346 2772.68480576 1211.63317871 2773.76602173 C1213.67957896 2775.81835037 1215.72975176 2777.866831 1217.78125 2779.9140625 C1218.38918396 2780.52397537 1218.99711792 2781.13388824 1219.62347412 2781.76228333 C1223.34149297 2785.46068915 1227.17806024 2788.96533306 1231.1619873 2792.37606812 C1233.01942268 2794.01716044 1234.76517644 2795.73050476 1236.5 2797.5 C1239.44600215 2800.49234375 1242.52983007 2803.25324172 1245.7109375 2805.9921875 C1247.93564472 2807.94355185 1250.11153265 2809.94168456 1252.28076172 2811.9543457 C1257.46474081 2816.76237477 1262.77450125 2821.31850101 1268.28515625 2825.75390625 C1271.10673495 2828.0883059 1273.80590712 2830.51990598 1276.5 2833 C1281.8296789 2837.8936826 1287.36696488 2842.46207844 1293 2847 C1294.26506799 2848.03294233 1295.5293428 2849.06685658 1296.79296875 2850.1015625 C1304.45197169 2856.36667139 1312.16886555 2862.52816134 1320.04882812 2868.51416016 C1322.36530271 2870.27818222 1324.67472865 2872.05126629 1326.984375 2873.82421875 C1336.31582242 2880.97683532 1345.6758732 2888.05620022 1355.30419922 2894.8046875 C1357.03549494 2896.02501918 1358.75487651 2897.26072765 1360.47265625 2898.5 C1381.74042047 2913.77457602 1403.69369815 2928.28980604 1426 2942 C1427.02303223 2942.63180176 1428.04606445 2943.26360352 1429.10009766 2943.91455078 C1453.89644167 2959.20545092 1479.27887576 2973.32171427 1505 2987 C1506.03092773 2987.55042969 1507.06185547 2988.10085937 1508.12402344 2988.66796875 C1523.40542 2996.80902279 1538.9213729 3004.29973969 1554.67626953 3011.47851562 C1557.73893157 3012.88049226 1560.79117142 3014.30228822 1563.83984375 3015.734375 C1650.45852287 3056.27865176 1743.19461604 3084.88727305 1966.625 3121.25 C1967.91100601 3121.36583435 1967.91100601 3121.36583435 1969.22299194 3121.48400879 C2002.34446101 3124.42365381 2035.44838376 3125.38202495 2068.68657303 3125.31805801 C2071.67865299 3125.31239852 2074.67072724 3125.30958989 2077.66281128 3125.30697632 C2108.53625794 3125.26782453 2139.22549909 3124.66824241 2170 3122 C2171.00637512 3121.91514343 2172.01275024 3121.83028687 2173.04962158 3121.74285889 C2272.48138289 3113.35150793 2369.99085973 3093.14279756 2651.05004883 2981.07470703 C2651.69353271 2980.72005371 2652.3370166 2980.36540039 2653 2980 C2653.68151123 2979.62343262 2654.36302246 2979.24686523 2655.06518555 2978.85888672 C2657 2978 2657 2978 2660 2978 C2657.31270244 2990.55452708 2654.28315168 3002.98020506 2650.9375 3015.375 C2650.70078583 3016.2547348 2650.46407166 3017.1344696 2650.22018433 3018.04086304 C2627.6826967 3101.59586965 2596.60613034 3182.62327355 2498 3354 C2497.05057025 3355.36052986 2496.1013577 3356.72121132 2495.15234375 3358.08203125 C2484.59904465 3373.17042985 2473.79591713 3388.02274086 2462.08203125 3402.234375 C2459.15279451 3405.79215242 2456.3217549 3409.41935791 2453.5 3413.0625 C2448.11316608 3419.98267596 2442.3779965 3426.5739948 2436.59667969 3433.16503906 C2435.07184897 3434.91742861 2433.56704142 3436.68452193 2432.0703125 3438.4609375 C2424.70340354 3447.19796901 2416.95930854 3455.52687068 2409.08203125 3463.8046875 C2406.99329435 3466.00707049 2404.91662477 3468.22018763 2402.84375 3470.4375 C2382.74834768 3491.92775405 2382.74834768 3491.92775405 2372.9921875 3500.2265625 C2370.56062019 3502.39113418 2368.28788919 3504.68429453 2366 3507 C2362.4882345 3510.54918157 2358.90991099 3513.91968457 2355.1171875 3517.1640625 C2352.59400545 3519.3520617 2350.14445481 3521.61293113 2347.6875 3523.875 C2343.22126486 3527.94859909 2338.63078621 3531.80827703 2333.92578125 3535.6015625 C2331.27768561 3537.77236453 2328.68853577 3539.99294623 2326.10766602 3542.2421875 C2319.09500507 3548.34479339 2311.83966323 3554.044176 2304.421875 3559.64453125 C2300.66638354 3562.48114359 2296.95977091 3565.37535703 2293.26123047 3568.28564453 C2284.7664 3574.96080931 2276.09413266 3581.30147542 2267.21582031 3587.45507812 C2264.92216587 3589.05426778 2262.64356094 3590.67319457 2260.3671875 3592.296875 C2190.97372076 3641.64725414 2114.14552229 3680.29480952 1994 3726 C1993.20432617 3726.27481201 1992.40865234 3726.54962402 1991.58886719 3726.83276367 C1960.12802028 3737.67366283 1928.19533751 3746.61881728 1896 3755 C1895.0897406 3755.23696594 1894.1794812 3755.47393188 1893.24163818 3755.71807861 C1829.8372115 3772.1620409 1765.05047527 3782.6368988 1699.8125 3788.25 C1698.48502747 3788.36569839 1698.48502747 3788.36569839 1697.1307373 3788.48373413 C1133.49454184 3836.89545911 565.71145999 3792 0 3792 C0 2540.64 0 1289.28 0 0 Z " fill="#F6B93D" transform="translate(75,237)"/>
<path d="M0 0 C82.83369297 -0.5308805 165.79822689 2.444417 574 50 C575.5013147 50.28460083 575.5013147 50.28460083 577.03295898 50.57495117 C650.8412531 64.60804803 724.07218048 82.27442366 796 104 C797.56923218 104.47376068 797.56923218 104.47376068 799.17016602 104.95709229 C885.63687045 131.12290247 970.97044208 162.66753993 1052.09863281 202.58398438 C1054.91726862 203.95962285 1057.74766789 205.30602801 1060.5859375 206.640625 C1083.73702438 217.53021031 1106.50712164 229.21918724 1128.6875 241.97265625 C1133.08173122 244.49547897 1137.52389492 246.91378001 1141.9909668 249.3046875 C1155.16490311 256.36577424 1167.91427749 264.07141461 1180.62792969 271.91992188 C1183.6978748 273.81363259 1186.77403806 275.69677044 1189.8515625 277.578125 C1243.01818127 310.26636236 1293.92338936 347.05472907 1341.37158203 387.60986328 C1343.07653996 389.06534011 1344.7861233 390.51526053 1346.49609375 391.96484375 C1353.15345162 397.62268597 1359.68611716 403.38407142 1366.0859375 409.33203125 C1368.27782808 411.33881579 1370.4876712 413.30309872 1372.73120117 415.25048828 C1386.0014518 426.84935637 1398.47031001 439.30989962 1410.91235352 451.78198242 C1413.58690335 454.46195281 1416.26683976 457.13645484 1418.94726562 459.81054688 C1420.67480033 461.53874152 1422.40202526 463.26724589 1424.12890625 464.99609375 C1424.91753555 465.78269882 1425.70616486 466.56930389 1426.51869202 467.37974548 C1430.66679484 471.54531354 1434.66080999 475.7875902 1438.48841858 480.25030518 C1440.87280484 483.01029431 1443.38002422 485.65290033 1445.875 488.3125 C1450.41348524 493.18585549 1454.69348797 498.20303977 1458.86328125 503.3984375 C1460.95882494 505.94986729 1463.13963155 508.38326773 1465.375 510.8125 C1469.43626167 515.26929324 1473.15413522 519.92962968 1476.84545898 524.69116211 C1479.79644135 528.4915842 1482.82513535 532.2040058 1485.9375 535.875 C1491.35323137 542.33123408 1496.3852387 549.04712393 1501.390625 555.82421875 C1503.02479529 558.03352179 1504.66800484 560.23587447 1506.3125 562.4375 C1521.42379217 582.7266511 1535.53456332 603.58623986 1549 625 C1549.56283691 625.88864746 1550.12567383 626.77729492 1550.70556641 627.69287109 C1596.14672448 699.4628899 1631.18688687 777.44249445 1703.203125 1103.76953125 C1703.269552 1104.60785492 1703.335979 1105.44617859 1703.40441895 1106.30990601 C1704.62723862 1122.50496515 1705.16482703 1138.6802081 1705.203125 1154.91796875 C1705.21014916 1156.77379886 1705.21723596 1158.62962873 1705.22438049 1160.48545837 C1705.24378149 1166.38614246 1705.24881511 1172.28678723 1705.25 1178.1875 C1705.25044186 1179.19378197 1705.25088371 1180.20006393 1705.25133896 1181.23683929 C1705.25826477 1211.32202427 1705.02112972 1241.27089952 1702.25323486 1271.25244141 C1701.98826513 1274.12732153 1701.73375957 1277.00301808 1701.47998047 1279.87890625 C1693.28628578 1371.52152377 1673.86921021 1461.52838802 1552.58935547 1755.2109375 C1551.04381139 1757.92311807 1549.52062153 1760.64661273 1548.00390625 1763.375 C1540.94500566 1776.01527525 1533.2291103 1788.09043325 1525 1800 C1524.53319824 1800.67675781 1524.06639648 1801.35351562 1523.58544922 1802.05078125 C1517.40046926 1810.97155861 1510.79802057 1819.53972724 1504 1828 C1503.24976562 1828.93457031 1502.49953125 1829.86914062 1501.7265625 1830.83203125 C1499.50423254 1833.57183516 1497.25917141 1836.29049542 1495 1839 C1494.57170898 1839.5146582 1494.14341797 1840.02931641 1493.70214844 1840.55957031 C1481.99785448 1854.57293155 1469.38073391 1867.69421143 1456.5 1880.625 C1455.67564453 1881.45402832 1454.85128906 1882.28305664 1454.00195312 1883.13720703 C1449.7299492 1887.39795061 1445.38359094 1891.50184356 1440.80908203 1895.43603516 C1438.20710883 1897.6854603 1435.70432584 1900.03065593 1433.1875 1902.375 C1427.64336143 1907.49064836 1421.87902985 1912.27237548 1416 1917 C1414.81788715 1917.9725947 1413.63696594 1918.94663895 1412.45703125 1919.921875 C1344.49723806 1975.9342202 1265.90055154 2019.58567432 1159 2061 C1157.89930176 2061.38881348 1156.79860352 2061.77762695 1155.66455078 2062.17822266 C1136.05803122 2069.0536775 1116.26661856 2074.91657642 1095.8359375 2078.77734375 C1095.05140198 2078.9271167 1094.26686646 2079.07688965 1093.45855713 2079.23120117 C1089.59815489 2079.96526949 1085.73603889 2080.67447647 1081.86328125 2081.34033203 C1070.85882056 2083.31808298 1062.84284324 2086.87456827 1055.5703125 2095.65234375 C1048.83594396 2105.72039223 1046.35340777 2117.35801276 1048.61328125 2129.21875 C1051.59350678 2140.24689733 1057.31839839 2149.32700813 1067.12207031 2155.46069336 C1075.14012493 2159.74927788 1084.60948597 2161.46440514 1093.38476562 2163.63598633 C1159.51530085 2180.01753862 1222.72566498 2206.34493607 1282.19873047 2239.44335938 C1285.1079572 2241.05999086 1288.02439431 2242.6630895 1290.94140625 2244.265625 C1314.27439353 2257.14136541 1337.03904245 2270.89262987 1359 2286 C1359.8343457 2286.57314941 1360.66869141 2287.14629883 1361.52832031 2287.73681641 C1382.33752312 2302.07462095 1402.72096359 2316.96511857 1421.9296875 2333.3984375 C1424.67734045 2335.74257701 1427.48800228 2337.99883316 1430.3125 2340.25 C1437.15965146 2345.82695525 1443.49853923 2351.93720618 1449.89746094 2358.01513672 C1451.98354953 2359.98447024 1454.08601422 2361.9344738 1456.1953125 2363.87890625 C1463.68765039 2370.7978329 1470.82000919 2377.82476561 1477.60205078 2385.44921875 C1479.67741085 2387.75146938 1481.80674072 2390.00189363 1483.9309082 2392.2590332 C1489.91195411 2398.62623109 1495.54112393 2405.17640491 1501 2412 C1501.99294221 2413.20335139 1502.98786509 2414.40507015 1503.984375 2415.60546875 C1520.44979321 2435.50627975 1534.81259319 2456.81380945 1548 2479 C1548.71542969 2480.20221191 1548.71542969 2480.20221191 1549.4453125 2481.42871094 C1590.02422113 2550.02768148 1612.49959278 2627.3147267 1628.36286223 2812.9827273 C1628.35161064 2818.06053474 1628.35839261 2823.13832971 1628.36257172 2828.21614361 C1628.36747822 2837.0677006 1628.36142219 2845.91919367 1628.3476181 2854.77074051 C1628.32707021 2867.95078001 1628.32386055 2881.13078662 1628.32369021 2894.31084013 C1628.32284314 2916.53720725 1628.3075174 2938.76354662 1628.28344727 2960.98989868 C1628.25961634 2982.99752768 1628.24198307 3005.005147 1628.23217773 3027.01278687 C1628.23154979 3028.40116837 1628.23092045 3029.78954988 1628.2302897 3031.17793139 C1628.22902521 3033.9636553 1628.22776283 3036.74937922 1628.22650349 3039.53510313 C1628.22619083 3040.22637275 1628.22587817 3040.91764238 1628.22555603 3041.62985956 C1628.22492464 3043.02841248 1628.22429524 3044.4269654 1628.22366785 3045.82551833 C1628.190873 3118.81398608 1628.11408995 3191.80239293 1627 3792 C1549.32838924 3792.051447 1471.65677641 3792.09914152 1393.9851532 3792.12702942 C1392.83458181 3792.12744359 1391.68401041 3792.12785776 1390.49857322 3792.12828448 C1365.49025409 3792.13726435 1340.48193477 3792.14557474 1315.47361519 3792.15319599 C1303.20856568 3792.15693782 1290.94351623 3792.1608275 1278.6784668 3792.16479492 C1276.84774057 3792.16538334 1276.84774057 3792.16538334 1274.98002997 3792.16598364 C1235.45974476 3792.17875514 1195.93947246 3792.20127969 1156.41919506 3792.22889166 C1115.78835373 3792.25722783 1075.15751954 3792.27566523 1034.52666849 3792.28174497 C1028.78061353 3792.28260937 1023.03455858 3792.28358627 1017.28850365 3792.28463173 C1016.15765867 3792.284834 1015.02681369 3792.28503627 1013.86170069 3792.28524467 C995.69847823 3792.28878224 977.53527794 3792.30267591 959.3720645 3792.3204961 C941.08753212 3792.33821236 922.80302158 3792.34489033 904.51848093 3792.34050413 C893.67112758 3792.33823194 882.82385451 3792.34421977 871.97651574 3792.36239263 C864.70896469 3792.37373009 857.44146558 3792.37393001 850.17391081 3792.36549544 C846.04675601 3792.36101194 841.91975186 3792.36096809 837.7926139 3792.37464955 C752.16814319 3792.64164783 666.29876354 3766.21413069 602.4765625 3707.265625 C600.42471266 3705.38853839 598.34339046 3703.56625363 596.23828125 3701.75 C591.84483898 3697.91419482 587.68331285 3693.87549932 583.5625 3689.75 C582.81605225 3689.00274658 582.06960449 3688.25549316 581.30053711 3687.4855957 C576.57754239 3682.71004884 572.16168581 3677.86867805 568.01953125 3672.578125 C565.83881772 3669.79423539 563.55040175 3667.12313649 561.25 3664.4375 C538.7991916 3637.43397349 522.32507211 3606.35868535 509 3574 C508.5580127 3572.93716797 508.11602539 3571.87433594 507.66064453 3570.77929688 C478.4865927 3500.23132348 465.83855147 3423.5257784 465.85523987 3347.40498352 C465.8520987 3345.07262922 465.8485222 3342.74027548 465.84455246 3340.40792245 C465.83493485 3334.04793655 465.83131724 3327.68795963 465.82870948 3321.32796752 C465.82568339 3315.15710488 465.81702735 3308.98624872 465.8089225 3302.81539108 C465.79247008 3290.19797277 465.78025198 3277.58055391 465.77020454 3264.96312904 C465.75572684 3246.91233159 465.73296198 3228.86154958 465.70853943 3210.8107632 C465.69875229 3203.55046635 465.68922991 3196.29016915 465.67970943 3189.02987194 C465.67865067 3188.22337487 465.6775919 3187.4168778 465.67650105 3186.58594143 C465.65138483 3167.41593919 465.62887456 3148.24593412 465.60717773 3129.07592773 C465.6062273 3128.23791106 465.60527686 3127.39989438 465.60429762 3126.53648326 C465.58216353 3107.00080478 465.56128654 3087.46512546 465.54260254 3067.92944336 C465.54179879 3067.090013 465.54099504 3066.25058264 465.54016693 3065.38571499 C465.53611616 3061.15293573 465.53207456 3056.92015645 465.52803367 3052.68737718 C465.52683518 3051.43253777 465.52683518 3051.43253777 465.52561248 3050.15234807 C465.52400018 3048.4638514 465.52238936 3046.77535473 465.52078002 3045.08685806 C465.49407609 3017.1129493 465.46066982 2989.13905464 465.42000187 2961.16516259 C465.4142533 2957.20458775 465.4085945 2953.24401279 465.40299797 2949.28343773 C465.40189617 2948.50413245 465.40079436 2947.72482717 465.39965917 2946.92190658 C465.38224524 2934.44812229 465.37201556 2921.97434222 465.36474552 2909.50054831 C465.35730715 2896.93469282 465.34281492 2884.36886116 465.32131977 2871.80302171 C465.30990707 2865.01224788 465.30178887 2858.22151166 465.30232811 2851.43072701 C465.31162355 2811.67374916 465.31162355 2811.67374916 463 2772 C462.91799319 2771.06064499 462.83598639 2770.12128999 462.75149453 2769.15346968 C462.30511205 2764.15355248 461.78325562 2759.17195767 461.1875 2754.1875 C461.10351959 2753.47294647 461.01953918 2752.75839294 460.93301392 2752.02218628 C455.9727442 2710.10518175 445.20859431 2669.56696268 428 2631 C427.57493164 2630.04673828 427.14986328 2629.09347656 426.71191406 2628.11132812 C409.67176786 2590.33836295 386.15423867 2556.08024506 358.28515625 2525.5078125 C356.6965598 2523.76442973 355.12199204 2522.00820221 353.55859375 2520.2421875 C342.69925282 2508.10432506 330.76999755 2497.10217077 318 2487 C316.89698705 2486.09551592 315.79551357 2485.18915231 314.6953125 2484.28125 C298.08818183 2470.65220089 280.21879334 2459.04577907 261.93554688 2447.80957031 C259.13125302 2446.0809088 256.33732921 2444.33683065 253.546875 2442.5859375 C241.54259744 2435.06629783 229.37608876 2427.89042298 217 2421 C216.09507812 2420.49533203 215.19015625 2419.99066406 214.2578125 2419.47070312 C139.58025364 2378.00060216 59.40243225 2347.87807213 -312.42507935 2292.55508423 C-376.61626304 2291.11180409 -437.90548144 2279.10359721 -496 2251 C-497.70953659 2250.19119732 -499.41916877 2249.38259666 -501.12890625 2248.57421875 C-530.91787546 2234.2889874 -558.15384992 2215.09278039 -582.26171875 2192.55078125 C-584.86233204 2190.12824134 -587.51574108 2187.78093217 -590.1875 2185.4375 C-594.32816281 2181.71948858 -598.05919594 2177.76802217 -601.7265625 2173.5859375 C-604.0631193 2170.92820451 -606.46564833 2168.34176315 -608.875 2165.75 C-614.61104613 2159.43152457 -619.8375619 2152.78789506 -625 2146 C-625.81259277 2144.94014893 -625.81259277 2144.94014893 -626.64160156 2143.85888672 C-683.19325714 2069.85082347 -713.98348776 1971.21022864 -702.1116333 1875.95245361 C-689.49687873 1781.78276132 -642.27079885 1689.6017457 -569 1628 C-568.11828125 1627.22914062 -567.2365625 1626.45828125 -566.328125 1625.6640625 C-529.26663648 1593.43273368 -486.05081584 1568.80514634 -440 1552 C-438.97696777 1551.62504395 -437.95393555 1551.25008789 -436.89990234 1550.86376953 C-415.61694869 1543.16538332 -393.73648487 1537.96286141 -371.4375 1534.1875 C-370.28685059 1533.99260986 -369.13620117 1533.79771973 -367.95068359 1533.59692383 C-364.30678764 1533.01261288 -360.65661187 1532.49641122 -357 1532 C-355.72009973 1531.82534462 -354.44019945 1531.65068924 -353.12151432 1531.47074127 C-336.99493161 1529.48849243 -320.80462362 1529.70278433 -304.58719194 1529.71264386 C-300.23031016 1529.71306835 -295.87345511 1529.7019176 -291.5165863 1529.69218445 C-283.98247578 1529.67681431 -276.44838378 1529.66833804 -268.91425896 1529.66447449 C-257.98344066 1529.6586848 -247.05267159 1529.64002905 -236.12187523 1529.61803395 C-218.3315024 1529.5823993 -200.54112675 1529.55405604 -182.75073242 1529.53173828 C-181.15756494 1529.52973579 -181.15756494 1529.52973579 -179.53221226 1529.52769285 C-172.00064174 1529.51827336 -164.4690709 1529.50911275 -156.9375 1529.5 C-148.35994442 1529.4896121 -139.78238902 1529.47908939 -131.20483398 1529.46826172 C-130.14858517 1529.46693098 -129.09233635 1529.46560023 -128.00407999 1529.46422917 C-110.29257936 1529.44167555 -92.58109956 1529.41142163 -74.86962038 1529.37586927 C-63.98956174 1529.35439593 -53.10953552 1529.33963801 -42.22945691 1529.33403051 C-34.74922855 1529.32973151 -27.26903101 1529.31836118 -19.78881984 1529.30180657 C-15.49683952 1529.2925507 -11.20491658 1529.28622966 -6.91292572 1529.28886986 C9.99396299 1529.29717407 26.84127674 1529.06027755 43.72337341 1528.08752441 C44.42528429 1528.04739752 45.12719517 1528.00727064 45.85037608 1527.96592778 C101.6876137 1524.69561537 156.40909578 1512.90531274 209 1494 C210.19254395 1493.57219238 211.38508789 1493.14438477 212.61376953 1492.70361328 C268.75864089 1472.31743718 321.01463723 1442.80737006 368 1406 C369.39605469 1404.90945313 369.39605469 1404.90945313 370.8203125 1403.796875 C381.20669595 1395.58127909 391.21682962 1386.92175915 401 1378 C401.84046875 1377.25234375 402.6809375 1376.5046875 403.546875 1375.734375 C410.51578715 1369.47416578 417.17928997 1362.92676948 423.8125 1356.3125 C424.70815674 1355.42143555 425.60381348 1354.53037109 426.52661133 1353.61230469 C431.02505388 1349.1033743 435.38743944 1344.53830357 439.53588867 1339.70483398 C441.38927162 1337.54672608 443.31998927 1335.46457855 445.25 1333.375 C449.79802765 1328.33446174 453.96692095 1323.05121534 458.12109375 1317.6875 C460.01776232 1315.24218693 461.94547275 1312.82848895 463.91015625 1310.4375 C471.32523687 1301.39343228 478.00266071 1291.96949812 484.49658203 1282.24560547 C485.86004116 1280.20905187 487.23704732 1278.18274774 488.62109375 1276.16015625 C503.36235536 1254.51804672 515.98586712 1231.55640764 527.375 1208 C527.94589355 1206.81994385 528.51678711 1205.6398877 529.10498047 1204.42407227 C534.38191542 1193.39686886 539.41490139 1182.28572452 543.3125 1170.6875 C545.18044861 1165.22005074 547.07072447 1159.76780309 549.09375 1154.35546875 C568.48243001 1102.31557811 580.25517819 1047.294564 585.78710938 992.08673096 C585.9994165 990.00571943 586.22487373 987.92648579 586.453125 985.84716797 C591.76193057 936.69430083 591.22264735 885.12863427 586 836 C585.87271515 834.77056671 585.87271515 834.77056671 585.74285889 833.51629639 C576.72669448 746.52611482 556.64528899 659.91228014 457 434 C456.32877792 432.83521639 455.65772315 431.67033636 454.98681641 430.50537109 C446.56281802 415.89165444 437.97732001 401.43386662 428.60351562 387.40234375 C426.91893175 384.87854574 425.24779684 382.34618466 423.578125 379.8125 C401.24086989 345.99988102 377.17965624 313.42856743 350.88208008 282.58300781 C348.03556517 279.24151473 345.25393687 275.85550675 342.5 272.4375 C338.37192681 267.36248529 333.99654409 262.55984584 329.55078125 257.765625 C327.51598117 255.55944053 325.52353762 253.33367739 323.5625 251.0625 C319.04564977 245.86224926 314.34753578 240.82884363 309.65673828 235.78613281 C308.04465198 234.04813938 306.44171487 232.30209357 304.83984375 230.5546875 C296.46325953 221.46766077 287.79135863 212.68411303 279.0625 203.9375 C278.47636932 203.34878113 277.89023865 202.76006226 277.28634644 202.15350342 C271.52790772 196.37500818 265.78323222 190.65100612 259.57202148 185.35375977 C257.61081622 183.66485105 255.79717048 181.86135514 254 180 C250.87154036 176.82910002 247.63144648 173.8743004 244.25390625 170.97265625 C242.04015714 169.0351462 239.87757752 167.0485561 237.72119141 165.04760742 C232.51116531 160.21493915 227.17626231 155.62879735 221.63671875 151.171875 C219.07579972 149.06243651 216.62876545 146.87112352 214.1875 144.625 C209.75449572 140.58479357 205.11758475 136.89366964 200.37915039 133.22485352 C196.36577183 130.10657999 192.47367572 126.88102228 188.625 123.5625 C182.75599245 118.53001108 176.63867247 113.89413632 170.42578125 109.296875 C167.25090211 106.94468615 164.1086704 104.55454103 160.98046875 102.140625 C150.96716164 94.41852201 140.83263113 87.00797254 130.34375 79.9453125 C126.5254833 77.3726389 122.78578287 74.70744317 119.0625 72 C110.27412481 65.65082617 101.12760856 59.84499633 92 54 C91.2359082 53.50773926 90.47181641 53.01547852 89.68457031 52.50830078 C66.29891386 37.44989618 42.27243212 23.4279075 17.55859375 10.6640625 C16.49479492 10.11395508 15.43099609 9.56384766 14.33496094 8.99707031 C12.27502692 7.93546609 10.21197782 6.87987943 8.14550781 5.83105469 C7.22479492 5.35829102 6.30408203 4.88552734 5.35546875 4.3984375 C4.53715576 3.98255371 3.71884277 3.56666992 2.87573242 3.13818359 C1 2 1 2 0 0 Z " fill="#F6B93D" transform="translate(2486,237)"/>
</svg>
